# xmcd
#
# Track frame offsets: 
#        150
#        27599
#        53148
#        68289
#        91871
#        110051
#        130164
#
# Disc length: 2007 seconds
#
# Revision: 1
# Processed by: cddbd v1.5.2PL0 Copyright (c) Steve Scherf et al.
# Submitted via: ExactAudioCopyFreeDBPlugin 1.0
#
DISCID=5607d507
DTITLE=Mye - my tasty soul
DYEAR=2010
DGENRE=R&B
TTITLE0=オリオンと白鳥の星
TTITLE1=永遠の答え
TTITLE2=どしゃぶりの雨の中で ～inside a pouring rain～
TTITLE3=ハナミズキ
TTITLE4=WHEN A MAN LOVES A WOMAN
TTITLE5=着信が無い
TTITLE6=真珠の涙-Live ver-
EXTD=
EXTT0=
EXTT1=
EXTT2=
EXTT3=
EXTT4=
EXTT5=
EXTT6=
PLAYORDER=
